<?xml version="1.0" standalone="no"?>
<!DOCTYPE svg PUBLIC "-//W3C//DTD SVG 20010904//EN"
 "http://www.w3.org/TR/2001/REC-SVG-20010904/DTD/svg10.dtd">
<svg version="1.0" xmlns="http://www.w3.org/2000/svg"
 width="1000.000000pt" height="1000.000000pt" viewBox="0 0 1000.000000 1000.000000"
 preserveAspectRatio="xMidYMid meet">
<metadata>
Created by potrace 1.11, written by Peter Selinger 2001-2013
</metadata>
<g transform="translate(0.000000,1000.000000) scale(0.100000,-0.100000)"
fill="#000000" stroke="none">
<path d="M0 5000 l0 -5000 5000 0 5000 0 0 5000 0 5000 -5000 0 -5000 0 0
-5000z m5715 2630 c1171 -78 1990 -363 2513 -874 345 -336 534 -715 618 -1236
23 -146 29 -761 8 -935 -165 -1389 -1291 -2141 -3334 -2225 -296 -12 -1031 -4
-1280 14 -1155 84 -1963 377 -2485 901 -239 240 -393 488 -500 809 -92 277
-125 521 -125 929 0 527 56 819 225 1172 323 674 990 1115 1998 1324 325 68
739 115 1130 131 268 10 1021 4 1232 -10z"/>
<path d="M4642 6260 c-331 -28 -624 -97 -849 -201 -179 -82 -359 -226 -459
-365 -60 -84 -127 -230 -156 -339 -21 -83 -23 -109 -22 -330 0 -213 2 -249 21
-317 106 -380 350 -639 755 -802 178 -71 381 -119 643 -150 169 -21 773 -15
934 8 674 98 1085 350 1261 772 66 159 75 214 75 479 0 279 -12 348 -90 513
-55 116 -113 197 -201 284 -91 88 -116 108 -211 167 -223 138 -528 231 -888
271 -128 15 -678 21 -813 10z"/>
</g>
</svg>
